HIERARCHY
ROOT Hips
{
	OFFSET 0.00000 0.00000 0.00000
	CHANNELS 6 Xposition Yposition Zposition Zrotation Yrotation Xrotation 
	JOINT LHipJoint
	{
		OFFSET 0 0 0
		CHANNELS 3 Zrotation Yrotation Xrotation
		JOINT LeftHip
		{
			OFFSET 1.28366 -1.58472 0.87544
			CHANNELS 3 Zrotation Yrotation Xrotation
			JOINT LeftKnee
			{
				OFFSET 2.18587 -6.00562 0.00000
				CHANNELS 3 Zrotation Yrotation Xrotation
				JOINT LeftAnkle
				{
					OFFSET 2.39085 -6.56880 0.00000
					CHANNELS 3 Zrotation Yrotation Xrotation
					JOINT LeftToe
					{
						OFFSET 0.12003 -0.32979 2.03101
						CHANNELS 3 Zrotation Yrotation Xrotation
						End Site
						{
							OFFSET 0.00000 -0.00000 1.04074
						}
					}
				}
			}
		}
	}
	JOINT RHipJoint
	{
		OFFSET 0 0 0
		CHANNELS 3 Zrotation Yrotation Xrotation
		JOINT RightHip
		{
			OFFSET -1.21795 -1.58472 0.87544
			CHANNELS 3 Zrotation Yrotation Xrotation
			JOINT RightKnee
			{
				OFFSET -2.22714 -6.11902 0.00000
				CHANNELS 3 Zrotation Yrotation Xrotation
				JOINT RightAnkle
				{
					OFFSET -2.40306 -6.60235 0.00000
					CHANNELS 3 Zrotation Yrotation Xrotation
					JOINT RightToe
					{
						OFFSET -0.15519 -0.42640 1.91430
						CHANNELS 3 Zrotation Yrotation Xrotation
						End Site
						{
							OFFSET -0.00000 -0.00000 0.99082
						}
					}
				}
			}
		}
	}
	JOINT lowerback
	{
		OFFSET 0 0 0
		CHANNELS 3 Zrotation Yrotation Xrotation
		JOINT Chest
		{
			OFFSET 0.01180 1.76430 -0.06387
			CHANNELS 3 Zrotation Yrotation Xrotation
			JOINT Chest2
			{
				OFFSET -0.00388 1.74651 0.09536
				CHANNELS 3 Zrotation Yrotation Xrotation
				JOINT lowerneck
				{
					OFFSET 0 0 0
					CHANNELS 3 Zrotation Yrotation Xrotation
					JOINT Neck
					{
						OFFSET 0.04111 1.46174 0.14397
						CHANNELS 3 Zrotation Yrotation Xrotation
						JOINT Head
						{
							OFFSET 0.00502 1.44580 -0.31711
							CHANNELS 3 Zrotation Yrotation Xrotation
							End Site
							{
								OFFSET -0.00395 1.49251 -0.12327
							}
						}
					}
				}
				JOINT LeftCollar
				{
					OFFSET 0 0 0
					CHANNELS 3 Zrotation Yrotation Xrotation
					JOINT LeftShoulder
					{
						OFFSET 2.70917 1.34870 -0.15417
CHANNELS 3 Zrotation Xrotation Yrotation
						JOINT LeftElbow
						{
OFFSET 0 -4.466100 -0.000000
CHANNELS 3 Zrotation Xrotation Yrotation
							JOINT LeftWrist
							{
OFFSET 0 -3.414140 0.000000
CHANNELS 3 Zrotation Xrotation Yrotation
								JOINT lhand
								{
									OFFSET 0 0 0
CHANNELS 3 Zrotation Xrotation Yrotation
									JOINT LFingers
									{
OFFSET 0 -0.328300 0.000000
CHANNELS 3 Zrotation Xrotation Yrotation
										End Site
										{
OFFSET 0 -0.264680 0.000000
										}
									}
								}
								JOINT LThumb
								{
OFFSET 0 0.000000 0.000000
CHANNELS 3 Zrotation Xrotation Yrotation
									End Site
									{
OFFSET 0 -0.268720 0.268720
									}
								}
							}
						}
					}
				}
				JOINT RightCollar
				{
					OFFSET 0 0 0
					CHANNELS 3 Zrotation Yrotation Xrotation
					JOINT RightShoulder
					{
						OFFSET -3.06316 1.13725 -0.10883
CHANNELS 3 Zrotation Xrotation Yrotation
						JOINT RightElbow
						{
OFFSET 0 -4.404310 0.000000
CHANNELS 3 Zrotation Xrotation Yrotation
							JOINT RightWrist
							{
OFFSET 0 -3.046880 0.000000
CHANNELS 3 Zrotation Xrotation Yrotation
								JOINT rhand
								{
									OFFSET 0 0 0
CHANNELS 3 Zrotation Xrotation Yrotation
									JOINT RFingers
									{
OFFSET 0 -0.500490 0.000000
CHANNELS 3 Zrotation Xrotation Yrotation
										End Site
										{
OFFSET 0 -0.403510 0.000000
										}
									}
								}
								JOINT RThumb
								{
OFFSET 0 0.000000 0.000000
CHANNELS 3 Zrotation Xrotation Yrotation
									End Site
									{
OFFSET 0 -0.409670 0.409670
									}
								}
							}
						}
					}
				}
			}
		}
	}
}
MOTION
Frames: 12
Frame Time: 0.008333333333333333
0.984200 15.759500 4.403600 -173.527000 2.627700 -169.444000 0.000000 0.000000 0.000000 -11.235300 -3.395900 -31.249000 2.091100 9.053300 25.962300 -0.131000 -7.394700 -1.239700 0.741200 5.499700 15.339600 0.000000 0.000000 0.000000 20.787100 -7.092000 -10.083800 -4.915000 -13.287500 40.454300 0.428200 -13.319100 -12.090700 -0.732900 -5.469600 15.252900 3.289700 3.465900 1.539900 -1.007900 4.858500 -4.099800 -3.144100 2.324100 -4.746900 0.839200 3.878100 -18.973300 3.137800 4.164000 19.271700 1.477400 2.277100 9.136800 -0.000000 -0.000000 0.000000 15.310400 1.640500 -60.137800 38.710500 -47.287100 17.485800 18.320200 -14.407000 -10.005400 0.000000 0.000000 0.000000 -7.125000 0.000000 0.000000 -7.646000 40.391800 -0.874500 -0.000000 -0.000000 0.000000 -2.111500 10.647000 36.679200 -29.461400 -40.427300 -11.058700 -12.770300 -17.305200 -7.173600 0.000000 0.000000 0.000000 7.125000 0.000000 -0.000000 10.238100 22.658000 5.591000
1.178752 15.700957 4.797159 -172.994264 4.643424 -170.512825 0.000000 0.000000 0.000000 -9.811436 -1.856388 -31.679017 2.116964 9.105658 26.126330 -0.123922 -6.839905 -0.513814 0.740744 5.498092 15.334848 0.000000 0.000000 0.000000 21.386744 -7.086760 -3.866040 -3.418490 -11.341992 33.444052 0.772352 -15.811903 -10.027242 -0.794323 -5.688491 15.883388 3.333354 4.221873 2.029960 -0.767306 5.875220 -3.929755 -2.996153 2.824405 -4.791682 3.133648 5.101255 -18.918705 0.349447 5.824996 20.005301 0.386956 2.896757 9.528568 0.000000 0.000000 0.000000 17.457062 3.050903 -65.666454 51.968588 -53.750665 27.756421 16.115555 -16.552747 -8.567305 0.000000 0.000000 0.000000 -7.125000 0.000000 0.000000 -9.297508 38.733705 -1.450262 0.000000 0.000000 0.000000 -6.116301 10.115962 46.831233 -38.511360 -47.155689 -17.341815 -11.298326 -23.454922 -6.148890 0.000000 0.000000 0.000000 7.125000 0.000000 0.000000 11.376801 23.726604 5.951078
1.377065 15.610032 5.289289 -172.394970 5.919337 -170.742970 0.000000 0.000000 0.000000 -7.765187 -1.921073 -33.108256 2.155484 9.182623 26.368252 -0.093085 -5.644706 0.317920 0.665733 5.217942 14.531171 0.000000 0.000000 0.000000 22.798312 -7.203155 -0.525770 -2.261727 -9.389792 27.023518 0.849860 -16.642718 -10.892829 -0.152061 -2.478433 6.831550 4.107953 4.478285 2.191714 -0.571420 6.249942 -3.715956 -3.237680 2.989176 -4.576376 4.407643 5.515415 -19.195647 -1.192563 6.391830 20.086651 -0.260214 3.078592 9.718897 0.000000 0.000000 0.000000 20.220528 2.839966 -69.220761 67.627715 -58.011657 40.755487 12.798500 -15.370550 -7.965254 0.000000 0.000000 0.000000 -7.125000 0.000000 0.000000 -11.991762 37.891469 -2.136286 0.000000 0.000000 0.000000 -10.853806 7.128201 55.490628 -51.145230 -53.435369 -27.094492 -10.228884 -26.792730 -5.970813 0.000000 0.000000 0.000000 7.125000 0.000000 0.000000 12.172391 23.926096 6.328003
1.595994 15.496723 5.887428 -172.711900 7.073928 -170.491823 0.000000 0.000000 0.000000 -6.185673 -3.211837 -34.575559 2.034586 8.937614 25.600521 -0.027626 -2.947182 0.780448 0.441870 4.261987 11.815387 0.000000 0.000000 0.000000 23.769447 -7.991543 -0.583098 -1.741044 -8.304179 23.641960 0.478730 -15.858318 -16.725310 -0.061619 1.587962 -4.368593 4.285652 4.489763 2.353626 -0.557668 6.259987 -3.473708 -3.321479 2.990628 -4.396891 4.947273 5.546711 -19.281756 -2.345050 6.565197 19.582787 -0.722127 3.076761 9.624703 0.000000 0.000000 0.000000 26.128396 0.286589 -70.735711 85.701162 -59.920517 56.278292 13.928147 -11.790457 -4.552294 0.000000 0.000000 0.000000 -7.125000 0.000000 0.000000 -10.484971 34.518138 -2.734919 0.000000 0.000000 0.000000 -17.354253 1.372943 62.916037 -67.516976 -57.990303 -40.661706 -11.248530 -32.262535 -5.999833 0.000000 0.000000 0.000000 7.125000 0.000000 0.000000 11.424074 23.876573 5.936458
1.847147 15.389074 6.542716 -173.130745 7.980387 -170.438980 0.000000 0.000000 0.000000 -4.365359 -4.756673 -34.836243 1.664135 8.128167 23.104011 -0.001706 0.948709 -1.014219 0.043362 1.335168 3.671680 0.000000 0.000000 0.000000 25.000591 -9.009808 -2.096704 -1.498413 -7.732210 21.903583 0.011891 -15.141466 -21.370333 -0.204553 2.911894 -8.033453 4.481748 4.443615 3.044318 -0.603292 6.216748 -3.262794 -3.525901 2.951709 -4.546092 4.517208 5.220305 -19.539100 -2.254398 6.210752 19.654980 -0.666667 2.887682 9.664111 0.000000 0.000000 0.000000 35.794471 -4.395814 -67.736867 104.390864 -59.200691 72.429168 12.558044 -13.811905 -2.791543 0.000000 0.000000 0.000000 -7.125000 0.000000 0.000000 -11.339517 32.691234 -3.477743 0.000000 0.000000 0.000000 -25.185034 -6.067752 65.162482 -85.684433 -59.927439 -56.263589 -8.995485 -37.417028 -5.598647 0.000000 0.000000 0.000000 7.125000 0.000000 0.000000 13.106560 24.314732 6.717075
2.096054 15.303732 7.192595 -172.666990 7.585430 -170.325342 0.000000 0.000000 0.000000 -1.985523 -5.986005 -35.009997 1.266295 7.132402 20.108343 -0.019328 4.447734 -5.554749 0.044501 -1.355740 -3.728271 0.000000 0.000000 0.000000 27.343851 -9.595102 -4.547518 -1.456092 -7.627081 21.586927 -0.509492 -13.967094 -24.789487 -0.084528 1.872920 -5.154703 5.562607 4.161933 3.785688 -0.246406 5.967386 -3.266975 -3.806477 2.783316 -4.930402 3.623985 4.429547 -19.843263 -1.445155 5.156782 20.430281 -0.383649 2.406541 9.905591 0.000000 0.000000 0.000000 47.963062 -8.797539 -58.669069 115.126653 -57.473878 81.575682 12.375653 -14.942920 -1.977043 0.000000 0.000000 0.000000 -7.125000 0.000000 0.000000 -11.374750 31.868165 -3.718871 0.000000 0.000000 0.000000 -35.533157 -12.517532 60.512061 -98.507328 -59.723379 -67.360687 -8.633755 -42.298163 -5.142220 0.000000 0.000000 0.000000 7.125000 0.000000 0.000000 13.414987 24.768752 6.738361
2.296793 15.292344 7.774852 -172.312972 6.060769 -170.371384 0.000000 0.000000 0.000000 -1.335302 -6.114275 -36.123345 1.131039 6.754737 18.990722 -0.028348 9.421547 -12.921998 0.125664 -2.284246 -6.291828 0.000000 0.000000 0.000000 29.481634 -10.072439 -7.428364 -1.553187 -7.865704 22.307008 -0.717151 -13.523429 -26.012330 -0.012147 0.705715 -1.939496 6.501124 3.668506 4.535190 0.384223 5.508982 -3.586554 -3.722970 2.508115 -5.728163 2.433552 3.505855 -19.764519 -0.347449 3.894608 21.709101 0.015104 1.822113 10.263192 0.000000 0.000000 0.000000 60.269141 -10.841456 -47.539193 115.267246 -57.443779 81.694178 11.878206 -16.889010 -2.042588 0.000000 0.000000 0.000000 -7.125000 0.000000 0.000000 -11.777002 31.919972 -3.840155 0.000000 0.000000 0.000000 -48.062349 -15.363005 51.421584 -101.849809 -59.462584 -70.243708 -10.969602 -47.613732 -4.395644 0.000000 0.000000 0.000000 7.125000 0.000000 0.000000 11.759753 25.482235 5.670166
2.439701 15.351064 8.245309 -172.881491 3.930247 -170.655274 0.000000 0.000000 0.000000 -6.078639 -0.559701 -40.377097 1.578925 7.925005 22.487965 0.117371 12.879323 -19.697651 0.016990 0.754542 2.074181 0.000000 0.000000 0.000000 30.289316 -10.622597 -10.462723 -1.781599 -8.395445 23.921774 -0.743977 -13.440843 -26.139199 -0.001181 -0.210042 0.577019 6.365292 2.955221 4.820327 0.813892 4.658504 -4.040044 -3.177436 2.080424 -6.514567 1.671643 2.876295 -19.570468 0.918417 2.766410 23.491247 0.427658 1.332953 10.828614 0.000000 0.000000 0.000000 71.259102 -10.709789 -39.269978 105.513676 -59.064275 73.392463 8.141493 -18.228025 -2.976393 0.000000 0.000000 0.000000 -7.125000 0.000000 0.000000 -14.874376 32.721161 -4.608193 0.000000 0.000000 0.000000 -60.979257 -15.179143 43.240323 -95.124901 -59.897865 -64.436686 -11.161372 -53.054606 -3.082098 0.000000 0.000000 0.000000 7.125000 0.000000 0.000000 11.737708 26.791008 5.291147
2.552478 15.410657 8.619845 -174.085327 2.078524 -171.355776 0.000000 0.000000 0.000000 -11.099702 5.073809 -44.324553 2.996999 10.687606 31.236059 0.353624 10.315690 -19.291051 0.156257 2.546308 7.018064 0.000000 0.000000 0.000000 30.080324 -10.409170 -12.159096 -1.980720 -8.825711 25.251603 -0.711322 -14.325467 -26.797840 -0.039748 -1.284386 3.531694 5.367159 2.498713 4.896020 0.975316 4.010137 -4.279695 -2.411795 1.799922 -6.947642 0.820276 2.314478 -19.421226 2.258966 1.684990 25.037056 0.896176 0.869015 11.352204 0.000000 0.000000 0.000000 80.160065 -10.463355 -35.440409 87.795250 -59.975690 58.090856 4.138494 -18.375005 -3.503175 0.000000 0.000000 0.000000 -7.125000 0.000000 0.000000 -18.119767 33.068083 -5.538413 0.000000 0.000000 0.000000 -72.099224 -12.378189 38.906115 -82.950203 -59.807894 -53.898811 -10.489861 -56.578243 -1.880437 0.000000 0.000000 0.000000 7.125000 0.000000 0.000000 12.370050 27.987078 5.231407
2.628712 15.423588 8.914928 -175.197219 1.632427 -172.381467 0.000000 0.000000 0.000000 -11.906881 7.541957 -44.694545 5.329357 13.744156 42.224470 0.422477 3.679162 -14.189452 0.006296 0.504235 1.385605 0.000000 0.000000 0.000000 29.395674 -9.113784 -12.677511 -2.235057 -9.339283 26.862664 -0.763356 -15.226004 -28.129655 -0.143392 -2.439714 6.722551 4.710256 2.450420 4.941512 0.721545 3.865737 -4.318690 -2.301738 1.745153 -7.045175 0.049231 1.893752 -19.128402 3.582853 0.778708 26.024350 1.374766 0.499849 11.669344 0.000000 0.000000 0.000000 86.188863 -9.678912 -34.032376 68.916103 -58.249082 41.848449 1.807704 -18.339252 -3.602724 0.000000 0.000000 0.000000 -7.125000 0.000000 0.000000 -19.955208 33.057086 -6.165728 0.000000 0.000000 0.000000 -79.801940 -9.112373 38.845761 -68.170594 -58.118850 -41.214836 -9.705005 -51.423510 -3.660454 0.000000 0.000000 0.000000 7.125000 0.000000 0.000000 12.771177 26.222367 5.953712
2.636920 15.402455 9.153524 -175.976755 2.525778 -172.788519 0.000000 0.000000 0.000000 -10.954311 9.080594 -43.361787 7.944514 16.076439 52.359501 0.417093 -1.139829 -11.855142 0.003134 -0.360980 -0.991933 0.000000 0.000000 0.000000 28.514404 -8.021848 -14.139148 -2.638482 -10.085241 29.253388 -0.900852 -14.808174 -28.684608 -0.197517 -2.862025 7.894884 4.853034 2.588813 4.505393 0.199969 4.002589 -4.429970 -2.916947 1.793958 -6.855709 -0.088543 1.778043 -19.396156 4.269037 0.320496 26.806921 1.592588 0.338105 12.037430 0.000000 0.000000 0.000000 89.295894 -7.467102 -32.452568 55.190702 -54.880557 30.373237 -0.682751 -17.267637 -3.855009 0.000000 0.000000 0.000000 -7.125000 0.000000 0.000000 -21.933651 33.170842 -6.793437 0.000000 0.000000 0.000000 -84.189737 -6.179115 40.809735 -57.298646 -55.543156 -32.103977 -8.741075 -43.904778 -5.710801 0.000000 0.000000 0.000000 7.125000 0.000000 0.000000 13.282021 24.207912 6.845772
2.614830 15.392953 9.350560 -176.623098 3.928172 -172.432751 0.000000 0.000000 0.000000 -10.221844 11.086465 -41.340722 9.705508 17.240628 58.499182 0.418688 1.008471 -12.636770 0.102258 2.031653 5.594227 0.000000 0.000000 0.000000 27.545500 -7.816072 -16.637341 -3.034773 -10.751013 31.444870 -1.032143 -13.158705 -28.024329 -0.131518 -2.336843 6.437479 4.597482 2.697108 3.899208 -0.088787 4.121392 -4.853516 -3.067374 1.862121 -6.943619 0.204959 1.891446 -19.742643 4.126925 0.396655 27.080572 1.508958 0.381240 12.216425 0.000000 0.000000 0.000000 90.443365 -3.948753 -31.715748 46.758568 -51.599089 23.609702 -0.108410 -16.955437 -1.877260 0.000000 0.000000 0.000000 -7.125000 0.000000 0.000000 -21.040025 31.356607 -7.469863 0.000000 0.000000 0.000000 -85.978574 -3.216546 42.225410 -51.459034 -53.566400 -27.343918 -8.279936 -39.367121 -7.293287 0.000000 0.000000 0.000000 7.125000 0.000000 0.000000 13.475155 22.659940 7.445603
